<svg xmlns="http://www.w3.org/2000/svg" width="128.125" height="400" viewBox="0 0 128.125 400">
  <defs>
    <style>
      .cls-1 {
        fill-rule: evenodd;
      }
    </style>
  </defs>
  <path id="Color_Fill_1" data-name="Color Fill 1" class="cls-1" d="M3,0C31.128,0.145,63.029-.03,96,0c14.45,30.083-10.283,82.04-7,123,1.27,15.849,7.206,24.83,10,43,4.726,30.739-5.615,63.858,1,91,4,16.418-11.461,22.966-10,37,1.952,18.753,14.913,32.924,20,49,5.252,16.6,4.226,33.025,7,51,4.961,1.629,9.89,2.5,13,6-27.35.285-105.387,6.516-122-4-6.982-23.872,6.611-49.194,1-75-18.154-83.5,2.618-142.574,15-217,2.6-15.613-3.864-26.269-6-37L17,41Z" transform="translate(-1.875)"/>
</svg>
