<svg xmlns="http://www.w3.org/2000/svg" width="117" height="400" viewBox="0 0 117 400">
  <defs>
    <style>
      .cls-1 {
        fill-rule: evenodd;
      }
    </style>
  </defs>
  <path id="Color_Fill_1" data-name="Color Fill 1" class="cls-1" d="M19,0H95c2.224,9.027,7.082,16.348,12,23l-2,3C78.037,35.693,76.008,60.635,88,90c2.781,6.809,10.135,8.749,11,18l-7,45,16,25q4.5,18,9,36c10.287,37.55-11.213,69.16-14,98q4,21.5,8,43c0.778,7.066-10.408,34.521-13,45H52l-5-31,3-24L26,308l12-72c-2.833-12.856-14.807-19.21-18-31-5.968-22.036,6.808-40.079,2-61-3.776-16.433-2.958-43.414-8-63C10.2,66.241,1.584,56.553,1,40,19.3,27.074,11.14,21.572,19,0Z" transform="translate(-1)"/>
</svg>
