<svg xmlns="http://www.w3.org/2000/svg" width="155" height="400" viewBox="0 0 155 400">
  <defs>
    <style>
      .cls-1 {
        fill-rule: evenodd;
      }
    </style>
  </defs>
  <path id="Color_Fill_1" data-name="Color Fill 1" class="cls-1" d="M156,395c-33.635-2.185-77.477,14.292-117,4-3.672-16.078-23.264-21.258-22-40,1.417-21.012,31.483-33.262,22-59L17,271c-9.892-25.18-3.671-87.653-1-116l-4-34c3.9-23.439,16.584-68.642,13-89C16.976,22.33,1.69,22.056,1,5L3,0,78,1l2,2,4,19,9,7,8,25c2.4,4.006,8.331,3.815,11,8,3.489,11.527,4.564,33.853,1,45l-16,5c-9.368,5.548-27.386,37.966-16,51l17,5c12.808,6.538,32.832,33.952,25,57-5.471,16.1-24.066,24.958-20,50C138.254,294.227,154.849,342.979,156,395Z" transform="translate(-1)"/>
</svg>
