<svg xmlns="http://www.w3.org/2000/svg" width="49.869" height="55.805" viewBox="0 0 49.869 55.805">
  <g id="Group_19" data-name="Group 19" transform="translate(-167.206 -381.367)">
    <g id="Group_18" data-name="Group 18" transform="translate(167.206 381.367)">
      <path id="Path_484" data-name="Path 484" d="M779.2,900.471a5.422,5.422,0,0,0,.949.779c.257.156.586.328.506.746-.057-.008-.11-.023-.164-.031-.009,0-.023.03-.035.046l.22-.034c0,.194.035.4.257.429.786.1,1.2.773,1.815,1.138.26.591.841.946,1.14,1.49s.731.969.974,1.529c.23.533.478,1.06.675,1.6.228.63.42,1.274.607,1.917a5.271,5.271,0,0,1,.11.718,1.422,1.422,0,0,0,.07.441,4.154,4.154,0,0,1,.3,1.333,23.8,23.8,0,0,1,.09,6.124c.133.531-.159,1.009-.2,1.522a5.6,5.6,0,0,1-.2,1.536c-.266.711-.434,1.458-.7,2.171-.241.656-.542,1.292-.833,1.929-.317.693-.651,1.379-.98,2.067a6.421,6.421,0,0,1-.448.9,23.4,23.4,0,0,1-3.294,4.36,26.008,26.008,0,0,1-2.059,2.087c-.915.658-1.695,1.488-2.663,2.078a12.954,12.954,0,0,1-2.6,1.328c-.456.152-.853.472-1.3.66a11.8,11.8,0,0,1-3.582,1,4.466,4.466,0,0,1-1.363.026,1.773,1.773,0,0,1-.986-.387,1.862,1.862,0,0,0-1.013.54,2.515,2.515,0,0,1-1.109.284,24.657,24.657,0,0,1-5.381-.42c-.846-.14-1.668-.387-2.5-.572a13.5,13.5,0,0,1-2.255-.729c-.674-.279-1.319-.63-1.983-.934-.522-.24-1.061-.443-1.58-.69a1.689,1.689,0,0,1-.748-.511.659.659,0,0,0-.363-.262,2.94,2.94,0,0,1-1.139-.739c-.9-.68-1.637-1.545-2.493-2.278a7.738,7.738,0,0,1-.838-.965,31.642,31.642,0,0,1-2.029-2.483,20.156,20.156,0,0,1-1.746-2.787.869.869,0,0,0-.133-.236,6.983,6.983,0,0,1-1.393-2.859c-.018-.058-.074-.113-.071-.168a1.667,1.667,0,0,0,.046-.517c-.047-.157-.238-.265-.316-.42-.034-.068.055-.2.116-.388a1.623,1.623,0,0,1-.511-1.09.942.942,0,0,1,.109-.139c.085-.075.263-.162.252-.209-.071-.3-.3,0-.449-.117a4.832,4.832,0,0,1-.453-1.6l.522-.04c.044-.458-.444-.18-.459-.333a5.544,5.544,0,0,1-.454-2.341.393.393,0,0,1,.251-.436c.079-.036.1-.2.149-.3l-.021.016c.1-.137.141-.274-.005-.408l.029.02-.536-.705a1.42,1.42,0,0,0,.315-1.21c-.076-.254.1-.583.165-.877.034-.148.159-.33.109-.431-.2-.4.112-.535.352-.759l-.519-.5a.743.743,0,0,0,.3-.866,1.071,1.071,0,0,1,.149-.861c.224-.386.258-.886.7-1.138a.255.255,0,0,0,.095-.151c.08-.315.151-.633.231-.973.267-.028.568-.054.635-.5l-.457-.746v0c.011-.311.046-.335.448-.241.112.369.265.676.744.508a1.234,1.234,0,0,0-.774-.479,3.3,3.3,0,0,1-.149-.3c-.047-.123-.079-.252-.116-.378.205,0,.427-.042.548.2l.552-.045a.453.453,0,0,1,.5.053c.233.158.375.019.488-.234l-.421-.312c.151-.161.444-.189.491-.472.4.073.817-.16,1.212.063a.785.785,0,0,0,.156.076c.035.007.079-.031.118-.049a.4.4,0,0,0-.134-.05.664.664,0,0,0-.165.044c.012-.113.024-.226.043-.4.1-.137.444-.041.5-.341-.264-.2-.264-.2-1.067-.336-.063-.172-.132-.363-.2-.552.2.074.4.156.6.214a.279.279,0,0,0,.4-.177c-.134-.228-.223-.52-.51-.633-.433.029-.234.475-.469.616l-.619.11c-.07-.047-.017-.242-.22-.184-.057.292-.1.556.3.686.087.028.109.257.16.394l.394-.161c.1.432-.344.456-.469.7-.09,0-.179,0-.267,0-.809,0-.874.081-.8.947-.192.01-.382.021-.572.031-.168-.111-.325-.25-.552-.2l.082-.368.677-.17.255-.515a1.17,1.17,0,0,0-.137-.134c-.357-.243-.363-.382-.021-.553.132-.065.262-.135.487-.252l-.644-.191c-.073-.4.364-.249.511-.537.031-.34.07-.776.111-1.23.327.062.419.289.527.477l.691.1c.121-.155-.179-.353.079-.479.162-.079.313-.178.469-.268l-.024.023c.193-.041.266.087.31.234.316-.025.182-.352.375-.42-.058-.1-.075-.173-.117-.2a1.636,1.636,0,0,0-1.543.118l.023.02a.864.864,0,0,1,.279-.651c.123-.088.082-.2.042-.323a.216.216,0,0,1,.057-.2,2.221,2.221,0,0,0,1.017-1.571c.286-.25.809-.069.882-.583,0-.016.1-.03.15-.027.251.014.544.074.324-.348l.375-.559c.426.032.538-.468.907-.535.139.045.152.122.141.273a3.285,3.285,0,0,0,.083.674l-.872.073c0,.263-.189.521.267.525.313,0,.281.333.309.567l-1.581-.1-.262.59a.684.684,0,0,1,.719-.007l1.1-.5h.549l.191-.568.641.205c.213-.245.714-.163.744-.687.365-.191.844.2,1.193-.178a1.274,1.274,0,0,1,.178-1.01c-.14-.153-.282-.306-.42-.462-.017-.019-.012-.057-.017-.086.476-.381.476-.381.235-.788a1.771,1.771,0,0,1-1.653.063l.029.027v-.4a5.573,5.573,0,0,0,.858-.127c.16-.049.284-.217.456-.358a1.72,1.72,0,0,1-.122-.326.666.666,0,0,1,.052-.237,1.534,1.534,0,0,1,.239.064.615.615,0,0,1,.136.116c.532-.235.532-.235.312-.854l.022.026a.645.645,0,0,1,.133-.124.779.779,0,0,1,.6-.115.584.584,0,0,1,.326-.493c.4-.182.427-.725.833-.917a2.291,2.291,0,0,0,.922-.858,1.316,1.316,0,0,1,.515-.35,27.6,27.6,0,0,1,3.748-1.7c.4-.134.782-.34,1.174-.51a10.31,10.31,0,0,1,1.813-.594,6.5,6.5,0,0,0,1.4-.366,5.1,5.1,0,0,1,1.064-.249,10.578,10.578,0,0,0,1.682-.406,11.285,11.285,0,0,1,2.668-.606c.5-.076,1.012-.124,1.521-.16.089-.006.187.105.281.163a1.841,1.841,0,0,0-.008.254c0,.027.055.049.085.074a.39.39,0,0,0,0-.082c-.021-.084-.045-.167-.068-.25l.685-.329.9.26-.393.63c-.009-.114-.017-.228-.027-.357a1.4,1.4,0,0,0-.293,0,.939.939,0,0,0-.222.144l.568.182c.191.06.379.2.581.028.271.119.472.059.72-.371l-.737.4c.1-.7.1-.7.785-.91l-.006.021.311.4c.158-.026.326-.062.5-.079.363-.038.541.186.451.545-.064.256-.113.516-.172.792l-.282.13c.014.3.193.349.426.32l.55.892a2.73,2.73,0,0,0-.2.266c-.013.022.043.085.067.13.04-.027.112-.052.116-.084a2.6,2.6,0,0,0,0-.335c.5.339.691.913,1.054,1.356.158.193-.085.317-.154.463.14.155.382.3.4.462.035.444.3.563.672.577.006.332-.093.654.271.832.312.152.189.49.247.742.024.1-.119.247-.22.432a2.642,2.642,0,0,1,.37.427c.2.353.489.647.391,1.152a1.225,1.225,0,0,0,.755,1.239c.4.226.443.444.452.861a2.089,2.089,0,0,1-.233,1.452l.429.91c.557-.006.908.421,1.344.686.33.2.616.471.934.694.17.119.438-.075.589.161.081.174-.137.406.192.607C779.315,900.828,779.259,900.649,779.2,900.471ZM741.5,906.049l.042-.112-.067.1.088-.087.042.144C741.568,906.082,741.532,906.066,741.5,906.049Zm7.885-9.268q-.013.178-.027.357h.037v-.354l-.355.079.026.071Zm-4.995,4.686a.96.96,0,0,0-.206-.132c-.033-.011-.09.046-.136.071.042.027.083.077.125.078a1.314,1.314,0,0,0,.247-.04.507.507,0,0,0-.035.083c-.03.127-.026.243.146.233.043,0,.082-.073.123-.113-.057-.053-.111-.109-.171-.158A.165.165,0,0,0,744.389,901.467Zm.809,3.645c-.141-.026-.282-.058-.425-.073-.017,0-.043.088-.064.136.046.021.1.069.138.059a1.594,1.594,0,0,0,.321-.138,1.443,1.443,0,0,0,.03-.17c0-.02-.026-.042-.041-.062-.024.038-.076.086-.067.113A.5.5,0,0,0,745.2,905.112Zm-.339-3.678c.114-.12.332-.163.293-.4-.2-.051-.252.056-.246.232a.594.594,0,0,1-.044.167,1.334,1.334,0,0,1,.235-.026c.093.006.185.032.417.077C745.2,901.271,745.052,901.72,744.859,901.433Zm-1.821-1.4c.026.047.041.111.08.138s.092-.006.14-.011c-.025-.033-.043-.083-.075-.094a.6.6,0,0,0-.166-.011c.067-.356.068-.356-.318-.278Zm-4.123,8.336c.078.046.154.1.235.136.245.119.313-.028.341-.221-.2.03-.389.06-.583.094,0,.071,0,.142.005.213C738.913,908.519,738.914,908.445,738.914,908.371Zm4.25-6.439c-.079.009-.159.018-.238.028a.378.378,0,0,0-.063.019c.037.023.086.074.109.065a1.317,1.317,0,0,0,.205-.13l-.029.312h.636C743.665,901.867,743.336,902.075,743.164,901.932Zm-3.365,7.4-.334.218a1.045,1.045,0,0,0,.378.588c-.022-.329-.037-.555-.052-.777.064-.035.146-.119.136.049Zm3.413-.815c.061.223.172.2.362.025h-.383l-.365-.425c.393-.047.045-.453.367-.621l.512-.094c-.022-.6-.524-.774-.864-1.084-.269.1-.591-.243-.845.113.007.326.31.482.462.744l-.612.511c.252.42.714.236,1.006.456-.233,0-.493-.086-.65.251l.568.321Zm1.58-9.55c-.276.331-.658.021-.991.1.136.389.286.677.683.727.284-.216.482-.459.309-.831.22.14.2.611.639.466C745.362,899.066,745.086,899.007,744.793,898.971Zm-3.142,5.751c.088.395.129.577.18.805l.752-.328Zm-.085,2.2a1.821,1.821,0,0,0-1.1-.047C740.73,907.276,740.73,907.276,741.566,906.922Zm2.1-1.759c-.057.329-.025.431.109.476a.328.328,0,0,0,.446-.16c.071-.229-.156-.264-.325-.3A1.94,1.94,0,0,0,743.668,905.163Zm-1.679,5.885c.131-.2.131-.2.143-.65-.227-.077-.351.005-.313.242A1.837,1.837,0,0,0,741.989,911.048Zm1.754-1.508c-.174-.358-.193-.377-.431-.271-.121.055-.289.1-.236.342Zm-3.1-1.726c-.135-.108-.195-.194-.254-.193a.268.268,0,0,0-.2.122c-.019.036.064.182.1.183A1.243,1.243,0,0,0,740.645,907.814Zm-2.184,1.8.455-.284C738.544,909.343,738.544,909.343,738.461,909.614Zm2.791-3.094a.947.947,0,0,0-.2-.161.166.166,0,0,0-.145.065c-.057.1.062.233.2.216C741.154,906.634,741.191,906.574,741.252,906.519Zm6.252-2.027.034.151a1.181,1.181,0,0,0,.325-.034c.068-.027.109-.123.163-.188-.072-.025-.151-.081-.215-.068A1.469,1.469,0,0,0,747.5,904.492Zm-6.386,3.7v-.168l-.151,0c0,.052-.01.116.015.152S741.071,908.19,741.118,908.192Zm-1.991,4.476c.051-.025.124-.038.145-.078s-.023-.1-.038-.152c-.051.025-.125.037-.147.078S739.111,912.617,739.127,912.668Zm2.393.715c-.044-.018-.1-.06-.127-.046s-.049.084-.072.129c.045.02.108.068.131.053S741.5,913.431,741.519,913.383Zm1.7-8.342-.253-.1c-.014.053-.057.127-.037.155a.2.2,0,0,0,.159.052C743.124,905.145,743.158,905.092,743.217,905.042Zm3.693-5.837a.69.69,0,0,0,.091.1c.01.008.066-.02.066-.03a.52.52,0,0,0-.029-.113Zm-1.857,1.281.009-.072-.106,0c.01.023.013.054.031.068S745.031,900.486,745.053,900.486Zm-4.475,3.313-.082.134a.859.859,0,0,0,.126.058c.006,0,.046-.055.039-.071A.627.627,0,0,0,740.578,903.8Zm29.092,33.629a.841.841,0,0,0-.065-.138c-.007-.01-.076,0-.077.01a.788.788,0,0,0,0,.142Zm-32.052-22.393a.474.474,0,0,0-.03-.065,1.373,1.373,0,0,0-.131.051.33.33,0,0,0,.028.06A1.281,1.281,0,0,0,737.617,915.035Zm3.008-.649.011.079a.73.73,0,0,0,.125-.076c.011-.01-.008-.052-.013-.08Zm-2.308-2.233-.034.063.054.027a.231.231,0,0,0,.027-.063C738.366,912.172,738.334,912.161,738.317,912.152Zm4.317-1.073c-.01.024-.035.06-.027.07s.05.025.076.037c.009-.023.033-.057.025-.066A.232.232,0,0,0,742.634,911.079Zm-.232-1.925c-.044-.014-.088-.029-.133-.039a.293.293,0,0,0-.023.053c.043.016.086.034.13.047A.519.519,0,0,0,742.4,909.154Zm1.09-2.788c-.037-.045-.064-.1-.105-.117s-.085.037-.128.058l.131.155ZM766.928,885.6a.879.879,0,0,0-.124-.067c-.008,0-.033.038-.049.059a1.32,1.32,0,0,0,.13.071S766.913,885.626,766.928,885.6Zm1.252,1.624v.069l.073-.033Zm1.791.4c-.023-.016-.044-.042-.068-.044s-.05.019-.075.03c.022.015.043.042.067.044S769.946,887.638,769.971,887.626ZM748.734,897.6l.069-.042c-.019-.019-.047-.056-.054-.052a.5.5,0,0,0-.087.07Zm-.609,3.1c-.024-.021-.05-.06-.066-.057a.843.843,0,0,0-.15.058c.02.02.045.061.061.058A.915.915,0,0,0,748.125,900.7Zm-4.575.348c-.015-.026-.036-.076-.044-.074a1.225,1.225,0,0,0-.153.058c.017.025.038.073.05.071A.922.922,0,0,0,743.55,901.047Zm-2.034,1.607-.059-.137c-.021.017-.063.038-.06.049a.887.887,0,0,0,.055.137Zm4.415.506-.035-.061-.052.035.063.09Zm-2.248.346a1.124,1.124,0,0,0-.065.132c0,.006.04.028.062.043a.86.86,0,0,0,.059-.126C743.743,903.545,743.7,903.522,743.683,903.506Zm.539,1.032c0,.022,0,.052.006.062s.043.008.066.011c0-.033-.007-.065-.01-.1Zm11.448.223c.006-.026.023-.056.015-.078s-.04-.03-.061-.044l-.031.127Zm-7.125,0,.007-.044-.057.014Zm16.685,34.394-.107-.022c.015.015.028.039.046.043S765.209,939.162,765.23,939.154Zm5.743-.081-.036-.058-.052.034.062.086Zm-6.772-1.965.057.04.013-.056Zm-22-17.9.03-.106c-.018.006-.052.011-.053.018A.347.347,0,0,0,742.2,919.212Zm-.974-.446.067-.035-.069-.027Zm-.372-5.354.073-.034-.076-.028Zm-2.36-1.651.059-.036-.114,0Zm-.36-.6.072,0-.034-.075Zm3.162-1.283.065.036.007-.059Zm1.521-3.976-.067-.12c-.022.015-.064.038-.062.043a1.121,1.121,0,0,0,.067.127Z" transform="translate(-737.002 -885.025)" fill="#957c9e"/>
      <path id="Path_485" data-name="Path 485" d="M763,916.775l-.792-.442a1.817,1.817,0,0,1,1.351-.142c-.067.066-.111.143-.171.16A.661.661,0,0,0,763,916.775Z" transform="translate(-753.776 -905.708)" fill="#957c9e"/>
      <path id="Path_486" data-name="Path 486" d="M769.25,917.092l-.532-.98c.137-.01.3-.059.324-.019a1.179,1.179,0,0,1,.2,1.007Z" transform="translate(-758.105 -905.687)" fill="#957c9e"/>
      <path id="Path_487" data-name="Path 487" d="M766.037,919.243c0,.272.012.388,0,.5a.275.275,0,0,1-.313.241c-.068,0-.183-.075-.191-.129a.447.447,0,0,1,.054-.323A2.1,2.1,0,0,1,766.037,919.243Z" transform="translate(-755.979 -907.793)" fill="#957c9e"/>
      <path id="Path_488" data-name="Path 488" d="M742.669,948.164c-.015.262-.023.524-.053.784,0,.027-.134.039-.227.064l.278-.844Z" transform="translate(-740.587 -927.036)" fill="#957c9e"/>
      <path id="Path_489" data-name="Path 489" d="M765.868,913.92c-.013.056-.031.11-.04.167-.022.146-.113.206-.236.14a.265.265,0,0,1-.12-.208c.016-.161.14-.132.254-.1a1.121,1.121,0,0,0,.171.026Z" transform="translate(-755.944 -904.233)" fill="#957c9e"/>
      <path id="Path_490" data-name="Path 490" d="M752.4,932.609a.627.627,0,0,1-.236-.083c-.028-.026.023-.137.039-.209.047.02.124.029.136.061a1.21,1.21,0,0,1,.037.254Z" transform="translate(-747.087 -916.492)" fill="#957c9e"/>
      <path id="Path_491" data-name="Path 491" d="M836.063,885.07a1.1,1.1,0,0,0,.141.073c.014.005.041-.023.062-.036l-.208-.015S836.063,885.07,836.063,885.07Z" transform="translate(-802.911 -885.055)" fill="#957c9e"/>
      <path id="Path_492" data-name="Path 492" d="M772.2,907.712c0,.06.015.131-.011.176s-.095.05-.146.073c.009-.042.005-.1.031-.124a.79.79,0,0,1,.15-.1Z" transform="translate(-760.321 -900.12)" fill="#957c9e"/>
      <path id="Path_493" data-name="Path 493" d="M769.671,919.117l-.314.016v-.024h.318Z" transform="translate(-758.53 -907.704)" fill="#957c9e"/>
      <path id="Path_494" data-name="Path 494" d="M737.733,977.522l-.435-.26.437-.112-.029-.021.005.408Z" transform="translate(-737.199 -946.309)" fill="#957c9e"/>
      <path id="Path_495" data-name="Path 495" d="M749.745,932.474a1.494,1.494,0,0,1,.055.233c0,.017-.068.041-.1.062-.01-.021-.035-.048-.029-.062.031-.072.07-.14.1-.211Z" transform="translate(-745.428 -916.596)" fill="#957c9e"/>
    </g>
    <path id="Path_483" data-name="Path 483" d="M20.2,16.381c-.021-.083,0-.207-.1-.207-.01-.124.01-.3-.1-.311a1.53,1.53,0,0,0-.414-.932h-.1c.073-.28-.207-.218-.207-.414-.031-.135-.186-.166-.207-.311-.01-.062-.021-.124-.1-.1-.01-.062-.01-.124-.1-.1.073-.28-.218-.2-.311-.311V13.48c-.114-.031-.073-.207-.207-.207v-.1h-.1v-.1a.943.943,0,0,1-.414-.414h-.1c0-.135-.187-.093-.207-.207h-.1v-.1a.541.541,0,0,1-.311-.311c-.083.021-.093-.041-.1-.1.249,0-.041-.28-.207-.207v-.1c-.135-.01-.145-.135-.311-.1-.062-.01-.124-.021-.1-.1-.093-.155-.155-.332-.414-.311-.083-.228-.363-.259-.518-.414-.021-.114-.114-.166-.207-.207h-.207c-.1,0-.083-.124-.1-.207a.283.283,0,0,0-.311-.207v-.1c-.207,0-.135-.28-.414-.207-.031-.238-.321-.228-.414-.414-.155-.124-.249-.3-.518-.311v-.1c-.145-.031-.176-.176-.311-.207h-.1a.29.29,0,0,0-.311-.207c-.031-.135-.187-.166-.207-.311h-.1c-.093-.155-.155-.332-.414-.311-.021-.114-.114-.166-.207-.207-.135-.01-.145-.135-.311-.1v-.1c-.218-.124-.3-.394-.622-.414a.943.943,0,0,0-.414-.414c.01-.332-.269-.352-.518-.414-.2-.259-.29-.611-.725-.622-.29-.021-.446-.176-.414-.518.031-.28-.218-.269-.414-.311v.1c-.176.041-.2-.083-.207-.207a2.993,2.993,0,0,1-.725-.622v-.1c-.093-.041-.187-.093-.207-.207-.1,0-.124-.083-.207-.1-.031-.249-.321-.228-.414-.414H6.217a.513.513,0,0,0-.311-.311c-.073-.1-.207-.135-.311-.207h0A.293.293,0,0,1,5.284,2.5c.021-.083-.041-.093-.1-.1-.124.021-.187-.021-.207-.1h.207a.457.457,0,0,0-.414-.207h-.1v-.1a.457.457,0,0,1-.414-.207c-.238.031-.394-.021-.414-.207h-.1c0-.135-.187-.093-.207-.207,0-.135-.187-.093-.207-.207v-.1c-.321.073-.2-.29-.518-.207A.437.437,0,0,0,2.383.632v-.1c.269-.145-.518-.1-.622-.207,0-.135-.187-.093-.207-.207H1.036V.01C.684-.031.446.041.518.425V1.15c-.228-.021-.052.373-.1.518.145.062.021.394.207.414.021.083,0,.207.1.207A.283.283,0,0,0,.932,2.6c.01.124-.021.29.1.311a.66.66,0,0,0,.207.311c.083.021.114.083.1.207a1.422,1.422,0,0,1,.725.933c.021.145.166.176.207.311.093-.021.1.041.1.1.238.073.28.342.518.414v.1c.093-.021.1.041.1.1.259-.021.321.166.518.207.114.021.166.114.207.207h.1v.1a.484.484,0,0,0,.414.414c.238-.031.114.3.311.311-.031.166.093.176.1.311.114.01.186-.021.207-.1.114.021.073.207.207.207v.1c.166.207.28.477.622.518a.293.293,0,0,0,.311.207c.021.083.083.124.207.1h.1c.093.083.062.28.207.311a1.382,1.382,0,0,1,.518.518v.1h.1c.073.228.311.311.518.414a1.208,1.208,0,0,0,.829.622v.207c.135.01.145.135.311.1.083.259.363.332.518.518a.528.528,0,0,0,.311.1c-.021.083.041.093.1.1.3.01.383.228.508.4l.01.01c.021.083.1.1.1.207-.093-.021-.1.041-.1.1.249.031.186.363.518.311v.1c.207,0,.135.28.414.207a.283.283,0,0,0,.311.207c.01.124.031.238.207.207v.1c.4-.093.373.249.622.311,0,.135.187.093.207.207v.1c.228.187.6.228.725.518a.54.54,0,0,0,.311.311v.1c.135.031.2.145.414.1a.716.716,0,0,0,.207.311c.01.124.031.249.207.207a.293.293,0,0,0,.311.207c.145.021.176.166.311.207a.746.746,0,0,0,.207.311h.1c-.031.238.021.394.207.414.041.093.093.187.207.207h.207v.1c-.155.166-.342.28-.414.518h-.207a.66.66,0,0,0-.311.207c-.083.021-.207,0-.207.1-.01.062-.021.124-.1.1a.457.457,0,0,0-.414.207c-.259-.021-.249.228-.414.311-.321.021-.4.29-.622.414-.176.093-.56,0-.518.311h-.1c-.031.145-.166.176-.207.311-.031.176-.176.238-.414.207,0,.1-.083.124-.1.207-.1,0-.124.083-.207.1a.283.283,0,0,1-.311.207.283.283,0,0,0-.311.207c-.031.207-.383.093-.414.311-.062,0-.124.01-.1.1-.238.031-.446.1-.518.311a.283.283,0,0,0-.311.207c-.083.021-.207,0-.207.1a7.4,7.4,0,0,0-1.036.725,2.4,2.4,0,0,0-.932.725,2.323,2.323,0,0,0-.932.725c-.332-.052-.28.28-.518.311,0,.1-.124.083-.207.1.01.114-.155.155,0,.207a5.037,5.037,0,0,1-.518.414c-.259-.021-.321.155-.414.311-.062,0-.124.01-.1.1a.274.274,0,0,0-.311.207c-.207.031-.207.28-.414.311h-.1c.031.207-.135.207-.207.311-.114.021-.155.114-.207.207h-.1c.124.332-.166.249-.207.414v.1h-.1c0,.1-.083.124-.1.207-.145.021-.176.166-.311.207-.031.207-.28.207-.311.414-.114.021-.073.207-.207.207-.093-.021-.093.041-.1.1-.093.041-.187.093-.207.207-.093.041-.187.093-.207.207-.083.021-.1.1-.207.1v.1c0,.1.124.083.207.1.124.01.29-.021.311.1a.293.293,0,0,0-.207.311c-.062,0-.124.01-.1.1-.145.01-.29.021-.311-.1.083-.021.114-.083.1-.207-.01-.1-.124-.083-.207-.1s-.093.041-.1.1c-.093-.021-.1.041-.1.1-.021.083-.1.1-.1.207-.093-.021-.1.041-.1.1-.01.2-.342.073-.311.311h-.1c.021.083-.041.093-.1.1.041.249-.186.228-.1.518-.124.021-.114.166-.1.311-.145.021-.124.228-.207.311.01.062.021.124.1.1a.747.747,0,0,1,.207.311v.207h-.1c.01.124.031.249.207.207,0,.135.187.093.207.207h.1c-.021.083.041.093.1.1a.489.489,0,0,1,.311.311v.1h.518v-.1h.622v-.1a.293.293,0,0,0,.207-.311c.218-.062.684.124.725-.1v-.1h.1v-.207c0-.1.083-.124.1-.207.166-.031.176.1.311.1.083.021.041-.083.073-.114l.031.01v-.052c.021-.073.093-.083.1-.155-.021-.093.041-.1.1-.1.145-.052.528.124.518-.1h.1q.093-.4-.311-.311c-.031-.207.145-.207.207-.311.414-.135.218.342.622.207v-.414c.124.021.186-.021.207-.1h.1c.373.166.062-.352.311-.311v-.1c.155-.021.383.031.414-.1.062-.01.124-.021.1-.1.145-.031.114-.228.207-.311h.1v-.414c.021-.083.1-.1.1-.207.083.021.093-.041.1-.1.166-.031.176.093.311.1a.1.1,0,0,0,.207,0c-.1-.01-.083-.124-.1-.207s.041-.1.1-.1h.1c.021.114.187.083.311.1v-.1c.062-.01.124-.021.1-.1.062-.01.124-.021.1-.1.135-.01.145-.135.311-.1v-.1c.155-.021.031-.311.207-.311v-.207c.145-.031.176-.176.311-.207v-.311h.311c.145.01.29.021.311-.1.093.021.1-.041.1-.1v-.1h.1c.269-.01.114-.446.518-.311v-.1c.124-.01.238-.031.207-.207v-.1c.238.031.394-.021.414-.207.052-.093.093-.186.207-.207h.1a.54.54,0,0,0,.311-.311,1.558,1.558,0,0,0,.725-.518c.021-.187.176-.238.414-.207,0-.1.083-.124.1-.207.062-.01.124-.021.1-.1a.49.49,0,0,0,.518-.207c.3-.01.383-.238.518-.414.01-.062.021-.124.1-.1a.746.746,0,0,0,.311-.207c.073-.207.28-.28.518-.311.041-.238.414-.135.518-.311.083-.021.207,0,.207-.1h.1c.031-.145.176-.176.207-.311a.747.747,0,0,0,.311-.207c.259-.155.57-.259.725-.518a5.042,5.042,0,0,0,.518-.414c.145-.031.176-.166.311-.207a.293.293,0,0,0,.311-.207c.01-.062.021-.124.1-.1a.528.528,0,0,0,.311-.1c.021-.083.1-.1.1-.207a.293.293,0,0,0,.311-.207c.114-.031.073-.207.207-.207a.283.283,0,0,0,.207-.311c-.021-.083.041-.093.1-.1.1,0,.124-.083.207-.1v-.1c.093-.041.186-.093.207-.207.041-.166.321-.093.207-.414H20c.114-.021.114-.166.1-.311h.207v-.829Zm-4.756,4.155h0v.083C15.417,20.567,15.428,20.6,15.448,20.536ZM11.5,9.853c-.135.041-.073.1.01.166h0C11.428,9.957,11.366,9.895,11.5,9.853ZM9.491,8.092a2.53,2.53,0,0,1-.414-.518h0A2.53,2.53,0,0,0,9.491,8.092Zm2.269,2.155c.073-.01.135-.021.155-.083-.021.062-.083.073-.155.083.135.093.218.238.363.332-.145-.093-.228-.238-.363-.332Zm-4.4,12.765c.135.01.145-.093.207-.155h.01C7.512,22.919,7.491,23.022,7.356,23.012ZM11.718,8.9h.01A2.567,2.567,0,0,0,12,9.1c-.093-.073-.2-.1-.249-.187.166.135.352.332.477.114A.152.152,0,0,1,12,9.1c.114.083.218.207.332.238A1.336,1.336,0,0,1,11.718,8.9ZM9.056,7.553h0c-.041-.073-.114-.1-.145-.186C8.942,7.45,9.014,7.481,9.056,7.553ZM2.487,27.26c.176-.041.2.083.207.207v.1h-.1c-.124-.01-.249-.031-.207-.207C2.393,27.3,2.4,27.239,2.487,27.26ZM1.036,28.918h.207a.293.293,0,0,1-.207.311c-.176.031-.2-.083-.207-.207C.85,28.938.912,28.9,1.036,28.918Zm4.352.1H5.181c-.166-.373.352-.062.311-.311.083.021.207,0,.207.1A.746.746,0,0,0,5.388,29.021Z" transform="translate(207.998 403.86) rotate(90)" fill="#ededed" fill-rule="evenodd"/>
  </g>
</svg>

